#!OML:ASF E:\Style4\Style4.ASF
:FULLY-SPECIFIED
:DEGREES
1272
root -0.446335 18.0058 -1.04167 4.27147 -3.74036 -0.33162
lowerback 2.84826 1.89987 -3.00363
upperback -1.01646 2.36524 -1.97967
thorax -2.68019 1.21183 -0.475026
lowerneck 3.96298 -4.0737 -7.78482
upperneck 4.32001 -5.79766 4.36272
head 1.06988 -2.99193 2.74749
rclavicle -6.16232e-015 -7.95139e-015
rhumerus -91.1298 55.884 -127.645
rradius 85.1606
rwrist 0.804956
rhand -12.4548 36.4148
rfingers 7.12502
rthumb 13.6187 6.88032
lclavicle -6.16232e-015 -7.95139e-015
lhumerus -33.9378 18.5255 23.8473
lradius 113.903
lwrist -13.4403
lhand -9.87315 35.8772
lfingers 7.12502
lthumb 16.1058 65.228
rfemur -8.98688 2.53135 19.8697
rtibia 22.393
rfoot -16.7694 -13.2252
rtoes -10.1578
lfemur -6.79867 -2.77909 -17.5243
ltibia 21.6194
lfoot -19.2666 11.7562
ltoes -13.8924
1273
root -0.443909 18.0114 -1.03799 4.27499 -3.51422 -0.340914
lowerback 2.90088 2.00662 -2.92263
upperback -1.05414 2.50668 -2.00315
thorax -2.74616 1.28152 -0.55496
lowerneck 4.00367 -4.05924 -7.72851
upperneck 4.25561 -5.7798 4.41199
head 1.04064 -2.98152 2.75552
rclavicle 2.78299e-014 2.14687e-014
rhumerus -91.1769 55.9003 -127.782
rradius 85.1274
rwrist 0.792264
rhand -11.956 36.92
rfingers 7.12502
rthumb 14.0994 7.41832
lclavicle 2.78299e-014 2.14687e-014
lhumerus -33.9944 18.4771 23.8262
lradius 113.8
lwrist -13.7517
lhand -9.88802 36.0838
lfingers 7.12502
lthumb 16.0915 65.4357
rfemur -8.83115 2.56466 19.8839
rtibia 22.1687
rfoot -16.7017 -13.4361
rtoes -9.96879
lfemur -6.68439 -2.74258 -17.5076
ltibia 21.3318
lfoot -19.0409 11.5748
ltoes -14.0678
1274
root -0.437695 18.0175 -1.03853 4.26629 -3.42774 -0.365119
lowerback 3.00151 2.17391 -2.78588
upperback -1.09654 2.72879 -2.03551
thorax -2.84134 1.39044 -0.682071
lowerneck 3.96964 -4.09851 -7.56386
upperneck 4.30593 -5.82305 4.34549
head 1.05739 -3.001 2.70094
rclavicle -2.86747e-014 4.77083e-015
rhumerus -91.2511 55.8704 -127.938
rradius 85.0911
rwrist 1.01924
rhand -12.3393 37.3529
rfingers 7.12502
rthumb 13.73 7.82585
lclavicle -2.86747e-014 4.77083e-015
lhumerus -34.0845 18.3466 23.7523
lradius 113.724
lwrist -13.8565
lhand -9.95772 36.1543
lfingers 7.12502
lthumb 16.0244 65.5116
rfemur -8.71245 2.54924 19.8719
rtibia 21.9435
rfoot -16.5363 -13.4664
rtoes -10.0101
lfemur -6.57097 -2.68173 -17.5077
ltibia 21.0604
lfoot -18.9181 11.574
ltoes -14.5941
1275
root -0.432732 18.0247 -1.03438 4.30746 -3.12946 -0.344527
lowerback 3.0118 2.25235 -2.71675
upperback -1.14311 2.83466 -2.0321
thorax -2.89297 1.44263 -0.724895
lowerneck 3.91634 -4.14994 -7.33081
upperneck 4.38619 -5.87612 4.1656
head 1.08102 -3.02492 2.59497
rclavicle -1.09332e-014 1.27222e-014
rhumerus -91.412 55.905 -128.154
rradius 85.0652
rwrist 1.1747
rhand -13.1042 37.1804
rfingers 7.12502
rthumb 12.9927 7.60497
lclavicle -1.09332e-014 1.27222e-014
lhumerus -34.3117 18.2152 23.6333
lradius 113.704
lwrist -13.6408
lhand -10.2394 35.9744
lfingers 7.12502
lthumb 15.7531 65.3534
rfemur -8.57447 2.572 19.8466
rtibia 21.6827
rfoot -16.4325 -13.7106
rtoes -9.82994
lfemur -6.5232 -2.78595 -17.5203
ltibia 20.778
lfoot -18.6867 11.5402
ltoes -15.1672
1276
root -0.427546 18.0331 -1.02429 4.35247 -2.67034 -0.283365
lowerback 2.94379 2.27314 -2.66439
upperback -1.15749 2.86771 -2.01467
thorax -2.86804 1.45837 -0.73535
lowerneck 3.83739 -4.17539 -7.27888
upperneck 4.42249 -5.90319 4.15982
head 1.106 -3.03717 2.58097
rclavicle -1.18774e-014 3.18055e-015
rhumerus -91.5727 56.0201 -128.346
rradius 85.0012
rwrist 1.16445
rhand -13.1488 37.2653
rfingers 7.12502
rthumb 12.9497 7.68712
lclavicle -1.18774e-014 3.18055e-015
lhumerus -34.5001 18.1637 23.5229
lradius 113.679
lwrist -13.4625
lhand -10.3144 35.7232
lfingers 7.12502
lthumb 15.6809 65.1078
rfemur -8.36354 2.52973 19.7964
rtibia 21.4013
rfoot -16.4582 -14.015
rtoes -9.44614
lfemur -6.45183 -2.95105 -17.5568
ltibia 20.4322
lfoot -18.3424 11.2941
ltoes -14.9265
1277
root -0.423942 18.0415 -1.008 4.41076 -2.06039 -0.216366
lowerback 2.77358 2.24775 -2.60095
upperback -1.13578 2.8447 -2.00456
thorax -2.74697 1.4453 -0.750619
lowerneck 3.75445 -4.19022 -7.30723
upperneck 4.417 -5.92179 4.28436
head 1.12543 -3.04534 2.62584
rclavicle 3.926e-015 -2.46493e-014
rhumerus -91.6418 56.1649 -128.506
rradius 84.9301
rwrist 1.12178
rhand -13.1507 36.7958
rfingers 7.12502
rthumb 12.9479 7.21754
lclavicle 3.926e-015 -2.46493e-014
lhumerus -34.6135 18.1605 23.4145
lradius 113.664
lwrist -13.4128
lhand -9.96211 35.4172
lfingers 7.12502
lthumb 16.0201 64.7748
rfemur -8.13086 2.42925 19.7645
rtibia 21.127
rfoot -16.5252 -14.4326
rtoes -9.06853
lfemur -6.35725 -3.18961 -17.58
ltibia 20.0264
lfoot -17.983 10.9309
ltoes -14.4876
1278
root -0.425479 18.0504 -0.990884 4.53971 -1.15159 0.0075434
lowerback 2.55303 2.12218 -2.7357
upperback -1.14517 2.68084 -2.02759
thorax -2.63654 1.36531 -0.681456
lowerneck 3.7013 -4.21565 -7.32715
upperneck 4.41419 -5.95697 4.42474
head 1.14199 -3.06188 2.6751
rclavicle -1.59028e-014 8.74653e-015
rhumerus -91.7158 56.1981 -128.627
rradius 84.9537
rwrist 1.12254
rhand -13.418 35.7158
rfingers 7.12502
rthumb 12.6902 6.12136
lclavicle -1.59028e-014 8.74653e-015
lhumerus -34.6758 18.1599 23.2527
lradius 113.665
lwrist -13.399
lhand -9.53524 35.2416
lfingers 7.12502
lthumb 16.4312 64.5657
rfemur -7.93615 2.26041 19.6213
rtibia 20.8771
rfoot -16.5759 -15.1114
rtoes -8.98494
lfemur -6.37385 -3.61158 -17.7229
ltibia 19.5919
lfoot -17.6222 10.5735
ltoes -14.8715
1279
root -0.424246 18.0572 -0.979697 4.65631 -0.334188 0.24907
lowerback 2.34783 2.04129 -2.8763
upperback -1.135 2.57749 -2.0301
thorax -2.5159 1.31538 -0.591963
lowerneck 3.73706 -4.2354 -7.46612
upperneck 4.32866 -5.99518 4.65173
head 1.12437 -3.08146 2.77868
rclavicle -3.88127e-014 -3.97569e-015
rhumerus -91.724 56.2178 -128.635
rradius 84.9939
rwrist 1.069
rhand -13.5523 35.086
rfingers 7.12502
rthumb 12.5608 5.48356
lclavicle -3.88127e-014 -3.97569e-015
lhumerus -34.737 18.1439 23.1945
lradius 113.681
lwrist -13.3347
lhand -9.47951 35.4158
lfingers 7.12502
lthumb 16.4848 64.7355
rfemur -7.74436 2.05238 19.4453
rtibia 20.6566
rfoot -16.6228 -15.6797
rtoes -9.07026
lfemur -6.35404 -4.02631 -17.907
ltibia 19.1408
lfoot -17.2818 10.3185
ltoes -15.2743
1280
root -0.417299 18.0621 -0.967411 4.71898 0.0739974 0.35498
lowerback 2.08302 2.12344 -2.91103
upperback -1.05928 2.70217 -1.94677
thorax -2.29616 1.37682 -0.479783
lowerneck 3.74425 -4.28441 -7.56701
upperneck 4.22014 -6.06389 4.72895
head 1.09947 -3.11581 2.82407
rclavicle 2.54444e-014 -2.62396e-014
rhumerus -91.7162 56.3725 -128.539
rradius 85.0338
rwrist 0.90973
rhand -13.5088 35.0488
rfingers 7.12502
rthumb 12.6027 5.44898
lclavicle 2.54444e-014 -2.62396e-014
lhumerus -34.7624 18.1821 23.3233
lradius 113.685
lwrist -13.2178
lhand -9.60804 35.4175
lfingers 7.12502
lthumb 16.3611 64.7474
rfemur -7.57267 1.97273 19.343
rtibia 20.4683
rfoot -16.6528 -15.9373
rtoes -9.08421
lfemur -6.219 -4.14475 -18.01
ltibia 18.6995
lfoot -16.9796 10.1665
ltoes -15.5727
1281
root -0.406474 18.0676 -0.950244 4.74247 0.328381 0.453302
lowerback 1.8261 2.23445 -2.93984
upperback -0.987384 2.86503 -1.85395
thorax -2.08631 1.45716 -0.362253
lowerneck 3.70324 -4.323 -7.62532
upperneck 4.18076 -6.11373 4.75167
head 1.10039 -3.14048 2.8414
rclavicle -8.89561e-015 5.56597e-015
rhumerus -91.7018 56.4887 -128.381
rradius 85.0494
rwrist 1.0893
rhand -13.3444 35.08
rfingers 7.12502
rthumb 12.7612 5.49
lclavicle -8.89561e-015 5.56597e-015
lhumerus -34.838 18.1952 23.3561
lradius 113.636
lwrist -13.0932
lhand -9.77571 35.3601
lfingers 7.12502
lthumb 16.1996 64.7032
rfemur -7.38809 1.92327 19.2082
rtibia 20.2596
rfoot -16.6492 -16.0663
rtoes -9.02641
lfemur -6.04247 -4.2294 -18.1452
ltibia 18.3403
lfoot -16.803 10.1371
ltoes -15.9287
1282
root -0.39263 18.0737 -0.937938 4.73776 0.760547 0.540017
lowerback 1.73308 2.25556 -2.81898
upperback -0.951711 2.90231 -1.82485
thorax -1.99333 1.47352 -0.395853
lowerneck 3.61342 -4.36178 -7.58032
upperneck 4.19992 -6.158 4.7499
head 1.12352 -3.16101 2.82946
rclavicle 2.0276e-014 -3.97569e-015
rhumerus -91.6547 56.5118 -128.317
rradius 85.0263
rwrist 1.40425
rhand -12.9874 35.1808
rfingers 7.12502
rthumb 13.1053 5.61255
lclavicle 2.0276e-014 -3.97569e-015
lhumerus -34.981 18.1762 23.2108
lradius 113.626
lwrist -12.9544
lhand -9.90383 35.4156
lfingers 7.12502
lthumb 16.0763 64.7687
rfemur -7.16591 1.80305 19.0929
rtibia 20.0383
rfoot -16.6285 -16.3114
rtoes -8.89001
lfemur -5.90161 -4.55386 -18.2747
ltibia 18.0208
lfoot -16.587 10.2011
ltoes -16.4657
1283
root -0.381264 18.0785 -0.932452 4.70409 1.39991 0.558383
lowerback 1.82238 2.20418 -2.55728
upperback -0.943592 2.83771 -1.81503
thorax -2.02163 1.43819 -0.532504
lowerneck 3.49559 -4.4026 -7.48718
upperneck 4.19502 -6.20226 4.77083
head 1.14279 -3.1802 2.8158
rclavicle -1.2921e-015 1.90833e-014
rhumerus -91.6093 56.5489 -128.368
rradius 85.0119
rwrist 1.45922
rhand -12.5177 35.2467
rfingers 7.12502
rthumb 13.558 5.70812
lclavicle -1.2921e-015 1.90833e-014
lhumerus -35.101 18.1369 22.9828
lradius 113.652
lwrist -12.8166
lhand -9.85823 35.3517
lfingers 7.12502
lthumb 16.1202 64.7013
rfemur -6.88637 1.69341 19.1029
rtibia 19.8198
rfoot -16.6408 -16.7823
rtoes -8.55499
lfemur -5.78784 -4.96348 -18.2887
ltibia 17.7078
lfoot -16.2617 10.086
ltoes -16.4553
